@startuml
'https://plantuml.com/class-diagram

!include ../user.puml
!include ../activity-metamodel.puml

package activity.judge {
	class JudgeActivitySession extends activity.metamodel.ActivitySession {
		learner: Learner
		activityConfig: ActivityConfig
		material: Set<Material>
	}

	class JudgeActivityConfig extends activity.metamodel.ActivityConfig {

	}

	JudgeActivitySession --> Learner
	JudgeActivitySession --> JudgeActivityConfig
	JudgeActivitySession *-- Judgement
	JudgeActivitySession o-- activity.metamodel.Material

	interface JudgementValue

	class LikertValue implements JudgementValue {
		value: LikertScale
	}

	class Judgement implements activity.metamodel.LearnerOutput {
		material: activity.metamodel.Material
		value: JudgementValue

	}
	Judgement --> activity.metamodel.Material

}
@enduml
