@startuml
'https://plantuml.com/class-diagram

'TODO: cleanup, and move + adapt to new structure in ./metamodel/

package activity.metamodel {
	class Sequence {
		state: State
		scenario: Scenario
		start()
		pause()
		resume()
		stop()
	}

	enum State {
		OPEN
		PENDING
		RUNNING
		PAUSED
		CLOSED
	}

	Sequence --> State
	Sequence --> scenario.Scenario

	Scenario *- ActivitySession : Managed by <

	abstract class ActivitySession {
		context: Sequence
		activityConfig: ActivityConfig
		state: State
		abstract getLearners(): Set<Learner>
		abstract getInputMaterial(): Set<Material>
		abstract getLearnerOutput(): Set<LearnerOutput>
	}

	class ActivitySessionLog

	ActivitySession --> Sequence
	ActivitySession -- ActivitySessionReport : Produced by >
	ActivitySession --> State
	ActivitySession --> ActivitySessionLog
	ActivitySession --> ActivityConfig
	ActivitySession *-- LearnerOutput
	ActivitySession o-- Material

	interface ActivitySessionReport
	interface LearnerActivitySessionReport

	LearnerActivitySessionReport -- Learner
	LearnerActivitySessionReport -- ActivitySessionReport

	interface ActivityConfig

	interface ConditionExpression {
		evaluate(term: Term): boolean
	}

	interface Term

	interface MaterialTransformer {
		supports(material: Material): boolean
		transform(material: Material): Term
	}
@enduml
